<?xml version="1.0" standalone="no"?>
<!DOCTYPE svg PUBLIC "-//W3C//DTD SVG 20010904//EN"
 "http://www.w3.org/TR/2001/REC-SVG-20010904/DTD/svg10.dtd">
<svg version="1.0" xmlns="http://www.w3.org/2000/svg"
 width="512.000000pt" height="512.000000pt" viewBox="0 0 512.000000 512.000000"
 preserveAspectRatio="xMidYMid meet">
<metadata>
Created by potrace 1.14, written by Peter Selinger 2001-2017
</metadata>
<g transform="translate(0.000000,512.000000) scale(0.100000,-0.100000)"
fill="#000000" stroke="none">
<path d="M3665 4440 c-158 -44 -698 -191 -715 -195 -9 -2 -83 -22 -165 -44
-540 -149 -872 -237 -882 -234 -18 7 -23 40 -23 150 l0 103 -59 29 -59 30
-198 -53 c-110 -30 -329 -88 -489 -131 -463 -123 -497 -134 -511 -152 -27 -36
-85 -165 -113 -251 -38 -116 -69 -257 -86 -397 -4 -27 -8 -61 -10 -74 -23
-142 -23 -719 0 -864 2 -12 6 -49 10 -82 3 -33 10 -85 15 -115 5 -30 12 -72
15 -94 10 -70 46 -239 66 -314 11 -40 22 -81 24 -90 9 -45 81 -236 121 -321
72 -154 186 -321 268 -394 93 -82 105 -90 206 -140 60 -30 72 -32 165 -31 101
1 164 6 181 16 9 5 40 13 94 22 14 2 38 9 53 15 16 6 33 9 38 5 5 -3 9 -1 9 4
0 11 58 29 87 27 12 -1 20 2 17 7 -5 7 11 12 19 6 2 -2 11 3 20 11 9 7 24 11
32 7 8 -3 15 -2 15 3 0 14 37 20 50 7 8 -8 9 -6 4 9 -7 18 -6 19 10 6 12 -11
16 -11 14 -2 -2 7 7 17 20 22 15 5 21 5 17 -1 -3 -6 1 -7 9 -4 9 3 13 10 10
15 -3 5 -2 9 3 10 4 0 15 2 23 4 8 3 24 6 35 7 11 2 25 9 31 17 8 11 13 11 18
2 5 -7 16 -9 28 -5 15 5 19 3 13 -7 -5 -8 -4 -10 0 -6 5 4 10 14 11 22 2 11
-2 12 -16 5 -23 -12 -33 -13 -26 -1 3 5 17 12 30 15 14 3 38 11 53 17 15 6 29
10 31 10 1 -1 16 6 33 14 22 12 34 13 43 6 7 -6 16 -8 19 -4 4 3 7 1 7 -4 0
-6 -5 -14 -10 -16 -6 -3 -5 -4 2 -3 7 1 14 12 14 24 1 18 -2 20 -12 11 -10 -8
-14 -8 -14 0 0 10 7 13 26 10 4 0 10 3 13 8 10 14 62 34 72 28 5 -4 9 -2 9 4
0 6 7 7 17 4 11 -4 14 -3 9 6 -4 6 -4 11 1 10 25 -4 44 2 37 14 -4 6 -4 9 1 5
4 -4 14 -3 21 3 10 8 18 7 30 -5 9 -10 24 -14 34 -11 12 4 22 -1 29 -12 7 -14
9 -7 7 29 -1 26 0 46 2 43 3 -3 11 0 19 6 7 6 13 8 13 5 0 -4 10 0 22 8 25 18
42 21 33 6 -6 -9 8 -14 28 -11 5 1 6 -9 2 -21 -5 -18 -4 -20 4 -8 9 13 15 8
13 -11 -1 -3 8 -6 20 -5 32 2 34 42 3 62 -14 9 -29 14 -32 10 -4 -4 3 -9 16
-13 17 -4 20 -8 9 -15 -10 -8 -9 -9 4 -5 12 4 16 0 15 -14 -2 -26 -13 -24 -33
6 -9 14 -20 22 -25 19 -5 -3 -9 2 -9 10 0 21 13 27 66 30 47 4 63 11 49 23 -4
5 -10 2 -12 -4 -5 -15 -23 -18 -23 -4 0 8 44 30 71 35 8 1 37 14 64 28 59 30
194 90 209 92 6 1 23 10 38 19 14 10 36 19 47 20 12 1 21 4 21 8 0 7 105 52
116 49 4 -1 10 3 13 8 10 16 120 64 131 57 6 -3 10 1 10 9 0 9 9 16 20 16 11
0 20 5 20 10 0 6 3 9 8 8 4 -1 17 3 28 10 12 6 24 8 28 5 3 -3 6 0 6 7 0 7 3
10 7 7 3 -4 14 0 24 9 10 9 29 17 42 18 14 0 23 4 21 7 -6 10 67 40 79 33 7
-4 9 -3 4 1 -6 7 98 63 128 68 5 1 13 6 16 11 4 4 25 16 47 26 30 14 43 15 52
7 8 -9 9 -7 4 7 -6 16 -4 18 10 13 9 -4 15 -3 12 1 -3 5 27 23 67 41 230 105
270 129 360 216 80 78 112 122 166 225 43 82 111 258 111 288 0 5 -18 12 -40
16 -22 3 -40 11 -40 16 0 6 3 9 8 9 19 -3 22 3 11 22 -7 13 -7 19 -1 15 6 -3
14 -1 18 5 5 8 3 9 -6 4 -9 -6 -10 -1 -6 16 7 23 7 23 -8 5 -9 -11 -16 -15
-16 -10 0 19 23 34 35 24 8 -7 12 -5 12 5 0 8 -4 12 -9 9 -4 -3 -8 0 -8 6 0 6
-5 8 -11 4 -8 -5 -8 -1 0 14 6 11 8 29 5 39 -6 16 -5 15 9 -2 8 -11 19 -17 23
-12 4 4 2 7 -5 7 -7 0 -9 5 -4 13 4 6 8 21 8 32 0 11 5 26 9 34 6 10 5 12 -2
7 -13 -8 -17 6 -5 18 10 10 13 37 3 31 -5 -3 -11 -1 -15 5 -3 5 -2 10 2 10 5
0 14 10 22 23 13 19 12 21 -1 10 -15 -13 -28 -8 -28 9 0 5 4 7 9 4 5 -3 14 1
20 8 8 10 9 16 1 21 -5 3 -10 3 -10 -2 0 -11 -20 19 -20 31 0 5 7 3 15 -4 13
-11 18 -11 28 0 9 10 9 11 -1 6 -7 -4 -19 -2 -27 4 -17 14 -17 14 -20 -55 -1
-27 -4 -52 -5 -55 -1 -3 -3 -22 -6 -44 -3 -28 0 -37 9 -33 9 3 13 -4 13 -23 0
-20 -4 -26 -14 -23 -11 5 -11 7 -1 14 8 4 10 11 6 15 -12 12 -21 -5 -23 -44
-1 -20 -3 -37 -5 -37 -2 0 -7 -25 -12 -60 -2 -11 -6 -25 -10 -32 -4 -6 -4 -19
-1 -28 4 -8 3 -15 -2 -14 -16 4 -64 -13 -64 -23 0 -5 -4 -6 -10 -3 -5 3 -10 2
-10 -2 0 -5 -10 -9 -22 -10 -11 -1 -25 -8 -29 -15 -5 -7 -9 -9 -9 -5 0 4 -8 3
-18 -2 -52 -28 -231 106 -322 240 -43 63 -140 249 -140 268 0 6 -4 19 -9 29
-13 24 -55 140 -62 170 -1 4 -9 30 -19 57 -9 28 -15 56 -13 63 3 6 -1 12 -7
12 -7 0 -10 8 -7 20 3 11 2 20 -2 20 -4 0 -8 7 -8 15 0 19 7 19 37 -2 20 -13
22 -14 13 -2 -7 9 -10 19 -6 23 4 4 -1 4 -11 0 -13 -5 -17 -4 -12 4 3 6 1 14
-5 18 -8 4 -9 3 -5 -4 4 -7 1 -12 -9 -12 -11 0 -15 5 -12 15 4 8 1 17 -4 21
-6 3 -8 17 -4 31 4 16 2 22 -5 18 -5 -3 -10 1 -10 10 0 18 29 17 45 -2 8 -9
14 -9 29 2 11 8 15 15 10 15 -6 0 -16 -6 -23 -12 -11 -11 -13 -10 -8 5 4 10 3
16 -2 13 -5 -3 -11 1 -15 9 -3 8 -11 15 -18 14 -10 0 -10 -2 0 -6 6 -2 12 -9
12 -14 0 -6 -9 -5 -21 2 -19 10 -20 13 -7 26 13 12 19 11 52 -8 20 -12 39 -19
43 -16 3 3 -9 12 -27 19 -26 11 -33 20 -35 46 -2 20 1 29 8 25 5 -3 16 2 23
11 7 10 15 13 18 7 4 -5 -4 -17 -16 -27 -13 -9 -16 -14 -8 -12 8 3 26 -5 40
-18 28 -28 22 -30 -20 -9 -17 9 -30 12 -30 7 0 -11 59 -32 75 -26 10 4 4 14
-18 34 -43 40 -20 38 26 -1 42 -36 47 -49 15 -43 -21 4 -21 4 -3 -5 26 -11 42
3 25 24 -10 12 -10 18 0 30 8 9 8 15 2 15 -6 0 -12 -6 -15 -12 -10 -29 -32 14
-33 67 l-1 53 26 -16 c37 -23 39 -25 14 -18 -13 4 -23 3 -23 -2 0 -6 11 -9 25
-7 16 1 24 -2 22 -9 -2 -6 -14 -10 -26 -9 -11 2 -21 -2 -21 -8 0 -5 5 -7 10
-4 6 3 10 1 10 -4 0 -6 -4 -11 -10 -11 -5 0 -10 -5 -10 -11 0 -8 5 -7 15 1 13
11 20 9 41 -11 13 -12 22 -29 20 -36 -4 -10 -1 -10 14 0 12 7 15 14 9 16 -18
6 -59 43 -59 54 0 5 19 -5 42 -22 27 -20 42 -39 43 -54 0 -12 4 -23 10 -24 5
-1 13 -10 17 -20 7 -16 8 -16 5 2 -2 11 -9 19 -15 17 -7 -1 -12 7 -12 18 0 11
6 19 12 18 7 -2 13 4 13 12 0 9 -10 15 -22 16 -27 1 -55 23 -47 35 3 5 12 2
20 -6 9 -8 20 -15 27 -15 6 0 3 6 -7 13 -17 13 -17 14 0 28 16 13 17 12 10 -6
-6 -17 -4 -17 18 4 15 14 26 20 26 14 0 -6 -6 -16 -14 -23 -12 -9 -13 -17 -4
-36 6 -13 13 -22 15 -20 3 2 0 13 -6 25 -9 16 -7 22 9 34 11 7 17 16 15 19 -3
3 2 8 11 12 11 4 15 2 11 -8 -4 -10 -1 -13 8 -10 7 3 16 11 18 18 5 13 -9 13
-61 2 -16 -3 -22 -1 -19 7 2 7 9 13 15 13 7 1 17 2 23 3 5 0 7 6 4 11 -3 6 -1
10 4 10 6 0 11 -4 11 -10 0 -5 14 -8 31 -6 22 3 39 -4 62 -23 17 -14 28 -20
23 -13 -4 6 -2 12 3 12 6 0 11 5 11 11 0 8 -5 8 -15 -1 -13 -11 -15 -9 -13 11
2 18 -2 24 -15 22 -12 -1 -17 4 -13 14 3 8 6 17 6 20 0 3 16 -10 35 -30 35
-36 53 -48 40 -27 -10 17 4 11 25 -10 16 -16 18 -25 10 -40 -6 -11 -17 -17
-24 -14 -19 7 -27 -8 -14 -26 8 -12 9 -12 4 3 -7 21 -2 21 29 1 22 -14 24 -14
35 5 7 14 7 21 0 21 -5 0 -10 -7 -10 -15 0 -8 -6 -12 -15 -9 -12 5 -12 9 0 27
7 12 12 35 10 50 -3 22 0 27 11 23 9 -3 12 -2 9 5 -4 6 -14 7 -24 4 -30 -12
-61 -12 -71 0 -8 9 -1 13 27 13 21 1 47 1 57 2 11 1 23 -5 27 -12 7 -10 9 -10
9 0 0 7 -11 17 -25 22 -31 12 -33 24 -2 14 48 -14 57 -46 16 -59 -10 -4 -19
-11 -19 -17 0 -7 5 -7 14 1 7 6 20 10 27 8 8 -2 11 -2 7 0 -7 5 28 70 44 79
15 9 5 -30 -12 -42 -11 -9 -12 -17 -4 -35 9 -20 11 -21 17 -5 4 10 3 15 -3 11
-6 -3 -10 1 -10 10 0 9 5 13 10 10 11 -7 12 -4 14 35 1 19 -3 24 -16 22 -10
-2 -18 2 -18 8 0 13 33 13 47 -1 6 -6 9 -18 5 -27 -3 -10 2 -8 16 6 13 13 28
19 39 15 16 -5 16 -4 -1 9 -11 9 -16 20 -12 27 6 9 11 9 22 0 20 -16 18 -56
-3 -68 -10 -6 -13 -11 -8 -11 6 0 16 5 21 10 8 8 15 6 25 -6 8 -11 9 -15 2
-11 -7 5 -21 -1 -33 -13 -11 -11 -16 -20 -11 -20 6 0 13 5 16 10 3 6 11 10 17
10 6 0 4 -8 -5 -18 -10 -10 -17 -26 -17 -35 0 -9 -6 -16 -12 -14 -7 1 -14 -8
-16 -21 -2 -13 -8 -20 -14 -16 -7 4 -8 2 -4 -5 10 -16 26 -4 26 20 0 10 5 18
12 16 6 -1 14 9 17 22 4 14 13 27 21 29 12 4 13 2 3 -10 -10 -11 -9 -19 2 -35
19 -27 26 -93 12 -118 -9 -18 -9 -19 6 -6 15 12 17 11 17 -3 0 -9 -5 -16 -11
-16 -6 0 -3 -7 5 -16 21 -21 20 -27 -4 -21 -11 3 -18 1 -14 -4 3 -5 11 -9 18
-9 7 0 13 -8 13 -17 0 -44 4 -63 12 -63 5 0 7 17 4 38 -2 20 -6 55 -8 77 -1
22 -4 40 -5 40 -1 0 -4 14 -5 30 -2 17 -4 32 -5 35 -1 3 -2 13 -1 23 1 9 -2
17 -7 17 -5 0 -8 10 -7 23 1 12 -2 27 -7 34 -5 7 -7 16 -4 21 3 6 -1 28 -8 50
-8 22 -12 43 -9 46 4 3 1 6 -6 6 -7 0 -11 7 -8 15 4 8 2 17 -4 20 -5 4 -7 11
-4 16 4 5 1 9 -6 9 -7 0 -10 3 -6 6 9 9 -14 66 -40 101 -19 24 -32 31 -56 31
-18 0 -38 -5 -44 -11 -7 -5 -13 -6 -13 -2 0 5 -10 0 -22 -11 -12 -10 -18 -13
-13 -5 6 11 4 13 -9 8 -10 -4 -22 -7 -27 -7 -6 0 -8 -4 -5 -8 3 -4 -5 -8 -17
-8 -22 0 -68 -10 -97 -21 -8 -4 -21 -5 -29 -4 -8 1 -10 -2 -5 -10 4 -8 3 -10
-4 -5 -14 9 -63 -4 -57 -14 3 -5 -5 -6 -17 -2 -13 3 -19 1 -15 -5 4 -6 -4 -9
-18 -7 -14 1 -25 -1 -25 -6 0 -4 -9 -6 -20 -3 -15 4 -20 0 -20 -13 0 -15 -2
-16 -9 -5 -6 8 -14 10 -22 5 -8 -5 -18 -9 -24 -10 -5 0 -16 -2 -23 -2 -7 -1
-11 -5 -9 -9 3 -5 -8 -9 -24 -10 -52 -3 -59 -6 -60 -22 0 -10 -2 -12 -6 -3 -2
6 -9 12 -14 12 -6 0 -8 -4 -5 -8 3 -5 -5 -8 -17 -8 -14 1 -22 -5 -22 -16 0
-26 -10 -30 -14 -5 -5 39 -4 61 2 107 13 85 42 220 64 298 8 29 12 59 9 67 -5
14 -65 48 -101 58 -11 3 -65 -8 -120 -23z m875 -321 c-12 -21 -4 -42 8 -22 5
7 11 7 20 -3 7 -8 9 -14 5 -15 -4 0 -16 -2 -25 -4 -10 -2 -18 1 -18 6 0 5 -4
9 -10 9 -5 0 -9 -3 -8 -7 2 -5 -5 -19 -15 -33 -9 -13 -17 -21 -17 -16 0 5 -7
3 -15 -4 -14 -12 -15 -10 -11 13 4 23 2 26 -13 18 -14 -8 -17 -5 -17 14 0 13
4 21 8 19 5 -3 6 -9 4 -13 -3 -4 12 -7 33 -7 24 0 38 5 38 13 0 8 -10 11 -28
8 -15 -3 -30 -1 -33 3 -5 8 8 12 47 13 9 0 17 6 17 12 0 8 3 8 9 -1 7 -11 9
-11 14 2 4 9 9 16 12 16 3 0 1 -9 -5 -21z m-176 -46 c-10 -7 -22 -13 -27 -13
-4 0 -5 -5 -2 -10 4 -7 14 -6 28 2 12 7 25 11 29 10 4 -1 5 5 2 13 -4 8 -1 15
7 15 7 0 9 -3 6 -6 -3 -4 -2 -15 4 -26 11 -21 3 -42 -13 -32 -6 4 -5 9 3 15
10 6 7 8 -9 6 -12 0 -22 -6 -22 -11 0 -5 -3 -6 -7 -3 -10 10 -32 -13 -27 -28
3 -7 1 -16 -5 -20 -7 -4 -8 0 -4 11 5 14 3 16 -11 11 -12 -5 -15 -3 -10 6 5 7
0 5 -11 -3 -10 -8 -16 -10 -12 -4 3 6 0 11 -7 11 -8 0 -13 -5 -12 -11 2 -6 1
-7 -2 -2 -2 4 -8 2 -13 -5 -7 -12 -9 -11 -9 1 0 13 -1 13 -10 0 -9 -13 -11
-13 -20 0 -5 8 -10 12 -10 8 0 -3 -3 -14 -7 -24 -5 -14 -3 -16 13 -11 19 7 19
7 0 -8 -15 -11 -22 -12 -27 -3 -4 7 -6 15 -4 18 2 4 -2 7 -10 7 -8 0 -11 -5
-8 -10 4 -6 1 -7 -7 -2 -9 6 -11 4 -5 -5 6 -9 4 -11 -5 -5 -8 5 -11 4 -6 -3 7
-12 -12 -11 -33 2 -9 6 -12 5 -7 -2 4 -7 -1 -10 -14 -7 -13 3 -18 0 -14 -7 5
-7 2 -8 -6 -3 -9 6 -11 4 -5 -6 8 -12 6 -12 -8 0 -9 7 -18 11 -18 7 -1 -3 -2
-10 -3 -15 -2 -14 -16 -26 -16 -13 0 6 -9 10 -20 9 -18 -1 -24 -10 -21 -29 2
-12 -17 -10 -24 2 -4 7 -13 6 -27 -1 -16 -9 -19 -8 -12 3 6 11 5 11 -9 -1 -9
-7 -17 -10 -17 -6 0 4 -8 1 -17 -6 -14 -12 -16 -12 -8 0 6 10 4 12 -4 7 -9 -6
-8 -12 4 -26 14 -16 14 -18 0 -24 -9 -3 -14 -2 -11 3 7 11 -22 36 -31 27 -3
-3 -1 -6 6 -6 7 0 9 -5 6 -10 -4 -6 -12 -7 -18 -3 -7 4 -4 -6 7 -21 17 -27 17
-29 1 -22 -15 5 -16 4 -5 -9 11 -13 15 -13 22 -3 5 9 7 5 6 -12 -2 -14 2 -24
8 -23 7 1 17 -11 24 -28 11 -26 10 -31 -6 -44 -10 -7 -23 -11 -28 -7 -6 3 -5
7 2 10 7 2 12 8 12 13 0 6 -4 7 -10 4 -9 -6 -14 14 -11 43 1 6 -3 12 -9 12 -6
0 -9 4 -6 9 4 5 1 11 -5 13 -16 5 -20 55 -7 83 7 15 16 21 26 18 10 -4 13 -2
8 5 -4 7 1 10 14 7 11 -2 20 1 20 6 0 6 5 7 11 3 6 -3 15 0 20 7 6 10 9 11 9
2 0 -7 5 -13 10 -13 6 0 9 4 8 9 -2 5 1 9 5 10 4 0 16 8 25 18 9 10 14 14 10
9 -13 -16 -9 -31 3 -19 6 6 19 9 28 5 14 -5 14 -4 2 11 -8 10 -11 20 -7 24 3
3 6 1 6 -6 0 -7 5 -9 12 -5 7 4 8 3 4 -4 -5 -8 -1 -11 11 -8 51 11 61 18 57
39 -4 18 -3 18 6 -3 l11 -25 24 27 c18 21 24 24 29 12 5 -13 9 -13 28 -1 13 7
33 13 46 12 16 -2 22 2 18 12 -4 9 -1 11 5 7 7 -4 19 3 29 16 13 17 19 20 25
10 5 -9 4 -11 -3 -6 -7 4 -12 3 -12 -3 0 -5 4 -12 8 -15 9 -5 34 8 33 18 -2
11 22 33 37 33 11 0 10 -4 -4 -14z m222 -18 c-3 -8 -1 -17 4 -20 6 -4 10 -15
10 -26 0 -11 -4 -18 -10 -14 -5 3 -7 13 -4 23 5 13 4 14 -4 4 -8 -11 -10 -11
-15 1 -3 8 0 20 6 26 9 9 8 11 -6 5 -10 -4 -16 -13 -13 -21 4 -9 1 -12 -7 -8
-6 4 -4 0 6 -8 10 -8 14 -18 9 -21 -14 -9 -33 19 -26 38 4 11 1 16 -12 16 -14
0 -16 -2 -6 -9 10 -6 8 -10 -10 -15 -13 -3 -19 -9 -13 -13 15 -12 17 -35 3
-31 -7 3 -13 10 -13 16 0 5 -4 14 -9 19 -5 5 -6 2 -1 -6 6 -10 4 -12 -6 -6
-11 7 -12 6 -2 -7 7 -8 10 -18 6 -21 -9 -10 -25 -9 -19 1 7 12 -12 38 -21 29
-4 -5 -1 -12 7 -17 9 -6 10 -10 3 -10 -7 0 -17 8 -22 18 -6 9 -11 11 -11 5 0
-16 -30 -17 -30 -2 0 5 5 7 12 3 7 -5 8 -3 3 5 -6 10 -10 10 -19 0 -6 -7 -18
-19 -26 -26 -13 -11 -12 -12 5 -6 18 6 19 5 6 -11 -9 -11 -17 -14 -24 -7 -7 7
-6 15 2 25 6 7 10 19 9 26 -4 16 32 22 49 9 8 -8 16 -5 25 10 7 12 17 21 22
21 4 0 3 -6 -3 -14 -9 -10 -8 -15 3 -19 9 -4 18 -2 21 4 4 5 10 7 15 4 4 -3
14 5 23 18 17 26 93 37 83 12z m-356 -17 c0 -11 -12 -10 -30 2 -12 7 -10 9 8
7 12 0 22 -5 22 -9z m335 -48 c5 8 11 8 19 1 7 -6 15 -8 18 -5 3 3 9 1 12 -4
3 -6 -1 -13 -9 -16 -9 -3 -18 1 -22 10 -4 12 -8 13 -14 3 -6 -11 -12 -11 -32
0 -13 7 -24 19 -24 27 0 11 6 9 23 -7 15 -14 24 -17 29 -9z m-251 -2 c-3 -5 2
-18 11 -28 16 -18 18 -18 52 5 33 23 36 23 59 9 13 -9 24 -17 24 -18 0 0 -12
-2 -27 -3 -19 -1 -22 1 -12 8 10 6 7 8 -11 5 -14 -2 -24 -9 -22 -16 2 -8 -3
-10 -13 -6 -9 3 -14 2 -12 -2 3 -4 -1 -13 -8 -19 -11 -10 -15 -9 -20 9 -6 16
-9 18 -16 7 -9 -14 -9 -14 -13 23 0 7 -13 13 -28 13 -22 2 -26 -1 -17 -12 6
-7 9 -13 6 -13 -3 0 -14 -3 -24 -6 -13 -4 -15 -3 -4 4 9 7 10 12 2 16 -10 6
-15 -5 -12 -26 0 -4 -8 -6 -19 -5 -11 1 -20 2 -20 4 0 9 49 48 60 47 8 0 21 3
28 6 20 10 42 8 36 -2z m-264 -8 c0 -5 -4 -10 -10 -10 -5 0 -10 5 -10 10 0 6
5 10 10 10 6 0 10 -4 10 -10z m488 -18 c2 -6 9 -9 14 -6 6 4 8 2 4 -4 -3 -6
-2 -14 4 -17 6 -4 10 -3 9 2 -3 18 1 36 8 29 10 -10 11 -46 1 -40 -4 3 -8 -1
-8 -8 -1 -8 -8 -4 -19 9 -10 12 -21 19 -25 16 -3 -3 -16 2 -28 13 -13 10 -18
12 -12 4 9 -13 11 -44 5 -84 -1 -11 -31 14 -31 26 0 6 8 4 18 -3 16 -13 16
-12 3 4 -13 16 -13 20 0 28 8 5 9 9 3 9 -6 0 -19 -10 -27 -22 l-16 -23 -19 23
-18 24 2 -31 c1 -17 -3 -32 -9 -32 -68 -8 -108 5 -93 30 4 5 -2 16 -11 23 -23
16 -26 35 -7 35 8 0 12 -2 9 -5 -8 -8 16 -43 26 -37 5 4 9 2 9 -2 0 -5 7 -18
15 -29 12 -14 14 -15 9 -2 -4 11 3 22 20 33 15 10 23 22 19 29 -5 8 -3 8 8 0
8 -6 25 -10 39 -9 14 2 28 4 33 4 4 1 6 4 6 9 -3 15 2 18 28 17 14 0 28 -6 31
-13z m-368 -18 c-1 -4 4 -10 10 -14 9 -5 9 -9 1 -14 -6 -4 -11 -1 -11 6 -1 7
-7 2 -16 -12 l-15 -25 5 25 c3 14 3 19 0 11 -5 -11 -8 -11 -16 0 -7 10 -8 8
-4 -7 5 -14 2 -21 -9 -21 -11 0 -13 6 -9 20 4 14 2 18 -7 15 -8 -3 -13 -12
-11 -22 2 -9 -2 -16 -8 -16 -6 0 -9 4 -6 9 3 5 -6 9 -19 9 -14 0 -28 -4 -31
-9 -3 -5 3 -6 13 -2 16 6 17 5 4 -11 -14 -17 -15 -17 -28 0 -11 15 -15 16 -26
4 -10 -10 -9 -11 2 -5 10 5 12 4 7 -4 -4 -6 -12 -8 -18 -5 -7 4 -8 2 -4 -5 4
-6 12 -8 18 -5 6 4 9 3 6 -2 -3 -5 1 -15 9 -23 13 -12 14 -11 9 7 -5 16 -3 20
11 17 10 -2 20 -4 23 -4 3 -1 -1 -5 -8 -10 -12 -7 -12 -12 -1 -29 12 -20 15
-20 31 -5 10 9 18 11 18 6 0 -6 -7 -16 -15 -23 -8 -7 -15 -18 -15 -24 0 -6 5
-3 11 7 6 9 14 15 19 12 4 -3 7 6 5 20 -1 14 2 28 6 31 5 3 9 -1 9 -8 0 -7 9
-19 21 -26 12 -7 18 -16 15 -19 -3 -3 -13 0 -23 8 -9 8 -14 10 -11 4 3 -5 0
-16 -8 -23 -8 -7 -14 -10 -14 -6 0 3 -7 1 -15 -6 -17 -14 -36 -5 -29 15 3 8
-6 21 -23 32 -15 9 -31 22 -35 27 -4 6 -12 5 -21 -2 -7 -7 -16 -11 -18 -9 -2
1 2 -4 10 -10 11 -10 12 -13 2 -13 -10 0 -11 -3 -3 -13 6 -7 9 -22 7 -32 -2
-11 -4 -22 -4 -25 -1 -2 -7 4 -15 15 -16 24 -17 55 -2 55 6 0 4 4 -4 9 -8 6
-18 7 -22 5 -4 -3 -8 -1 -8 4 0 13 29 24 42 15 7 -4 8 -1 3 7 -6 9 -4 11 5 5
8 -5 11 -4 6 3 -4 6 -13 9 -21 5 -11 -4 -14 0 -9 13 5 15 4 16 -5 4 -5 -8 -13
-11 -18 -7 -12 13 20 27 34 16 13 -12 36 -3 28 11 -3 4 2 10 10 14 8 3 17 1
21 -5 8 -14 36 10 28 25 -3 6 1 3 8 -6 13 -15 15 -15 25 1 12 19 53 23 64 7 4
-5 13 2 20 15 10 20 24 15 19 -7z m-230 12 c0 -2 -7 -7 -16 -10 -8 -3 -12 -2
-9 4 6 10 25 14 25 6z m-75 -26 c-3 -5 -12 -10 -18 -10 -7 0 -6 4 3 10 19 12
23 12 15 0z m418 -3 c16 -6 17 -9 2 -37 -9 -17 -14 -34 -11 -39 7 -11 -45 -8
-63 3 -10 6 -18 3 -28 -9 -7 -11 -13 -15 -13 -11 0 5 -7 2 -16 -5 -14 -11 -18
-10 -30 6 -8 11 -13 24 -10 31 2 6 -2 11 -9 11 -7 0 -11 -5 -9 -12 6 -15 -32
-49 -46 -40 -15 9 -1 27 17 21 8 -3 12 -2 8 3 -3 5 1 12 7 15 7 2 3 4 -9 3
-12 -1 -23 2 -25 8 -2 5 18 10 45 10 50 1 54 -3 35 -25 -11 -12 -10 -12 5 -1
20 15 23 2 5 -18 -7 -7 11 1 40 18 52 30 53 31 48 9 -3 -13 -3 -17 0 -9 5 11
8 11 16 0 8 -11 9 -10 4 3 -6 20 10 34 18 16 3 -7 3 -2 0 11 -4 15 -2 21 4 17
6 -3 13 -3 16 2 11 19 -49 6 -70 -15 -13 -13 -29 -23 -35 -23 -7 0 -9 3 -6 7
4 3 1 13 -6 21 -8 11 -8 14 0 9 6 -4 19 0 27 9 9 9 16 11 16 4 0 -7 8 -6 22 4
12 8 24 14 27 12 3 -2 14 -6 24 -9z m-33 -27 c0 -5 -5 -10 -11 -10 -5 0 -7 5
-4 10 3 6 8 10 11 10 2 0 4 -4 4 -10z m-340 -30 c14 -14 13 -17 -14 -37 -23
-18 -32 -20 -39 -10 -5 8 -6 5 -3 -8 3 -11 1 -27 -5 -35 -9 -12 -10 -12 -5 4
4 11 0 27 -11 38 -13 15 -14 21 -4 31 10 9 11 8 6 -5 -5 -13 -2 -17 14 -15 22
1 36 23 20 32 -12 8 -2 25 13 22 6 -1 19 -9 28 -17z m257 5 c0 -8 -4 -12 -9
-9 -4 3 -8 9 -8 15 0 5 4 9 8 9 5 0 9 -7 9 -15z m143 -35 c0 -5 -4 -10 -10
-10 -5 0 -10 5 -10 10 0 6 5 10 10 10 6 0 10 -4 10 -10z m100 -4 c0 -3 -4 -8
-10 -11 -5 -3 -10 -1 -10 4 0 6 5 11 10 11 6 0 10 -2 10 -4z m-484 -31 c-7
-36 -19 -55 -34 -53 -32 6 -40 29 -17 52 17 16 54 18 51 1z m214 -95 c0 -5 -2
-10 -4 -10 -3 0 -8 5 -11 10 -3 6 -1 10 4 10 6 0 11 -4 11 -10z m580 -666 c0
-8 -19 -13 -24 -6 -3 5 1 9 9 9 8 0 15 -2 15 -3z m-22 -113 c-7 -9 -13 -17
-14 -19 -1 -2 -1 10 0 27 0 23 4 27 13 19 11 -8 11 -14 1 -27z m-68 -277 c0
-8 -19 -13 -24 -6 -3 5 1 9 9 9 8 0 15 -2 15 -3z m-49 -27 c-10 -9 -11 -8 -5
6 3 10 9 15 12 12 3 -3 0 -11 -7 -18z m-70 -30 c-10 -9 -11 -8 -5 6 3 10 9 15
12 12 3 -3 0 -11 -7 -18z m-1954 -1430 c0 -12 -1 -16 -4 -9 -4 10 -8 10 -19 1
-12 -9 -18 -9 -27 0 -9 9 -9 13 0 19 26 16 49 11 50 -11z"/>
<path d="M4470 4059 c0 -5 5 -7 10 -4 6 3 10 8 10 11 0 2 -4 4 -10 4 -5 0 -10
-5 -10 -11z"/>
<path d="M4276 4032 c-3 -5 1 -9 9 -9 8 0 12 4 9 9 -3 4 -7 8 -9 8 -2 0 -6 -4
-9 -8z"/>
<path d="M4320 4030 c-9 -6 -10 -10 -3 -10 6 0 15 5 18 10 8 12 4 12 -15 0z"/>
<path d="M4124 3978 l-19 -23 23 19 c12 11 22 21 22 23 0 8 -8 2 -26 -19z"/>
<path d="M3936 3918 c3 -4 9 -8 15 -8 5 0 9 4 9 8 0 5 -7 9 -15 9 -8 0 -12 -4
-9 -9z"/>
<path d="M3835 3740 c3 -5 8 -10 11 -10 2 0 4 5 4 10 0 6 -5 10 -11 10 -5 0
-7 -4 -4 -10z"/>
<path d="M4515 3960 c3 -5 8 -10 11 -10 2 0 4 5 4 10 0 6 -5 10 -11 10 -5 0
-7 -4 -4 -10z"/>
<path d="M4436 3927 c3 -10 9 -15 12 -12 3 3 0 11 -7 18 -10 9 -11 8 -5 -6z"/>
<path d="M4389 3923 c-1 -5 -1 -12 0 -17 1 -5 -6 -6 -15 -2 -14 5 -15 4 -4 -9
7 -9 15 -14 17 -12 6 6 12 47 7 47 -2 0 -5 -3 -5 -7z"/>
<path d="M4315 3901 c-3 -5 -2 -12 3 -15 5 -3 9 1 9 9 0 17 -3 19 -12 6z"/>
<path d="M3890 3850 c-8 -5 -12 -12 -9 -15 4 -3 12 1 19 10 14 17 11 19 -10 5z"/>
<path d="M3905 3800 c6 -10 4 -12 -9 -7 -9 4 -15 3 -11 -2 3 -5 0 -11 -7 -13
-7 -3 -4 -7 7 -12 11 -4 16 -4 12 0 -4 4 1 12 10 19 13 9 13 14 3 20 -9 6 -11
4 -5 -5z"/>
<path d="M4562 3873 c-24 -30 -28 -43 -11 -43 5 0 8 4 4 9 -3 5 5 17 17 25 12
9 18 16 13 17 -6 0 -1 4 10 9 14 6 16 9 4 9 -8 1 -25 -11 -37 -26z"/>
<path d="M4580 3850 c-8 -5 -10 -10 -5 -10 6 0 17 5 25 10 8 5 11 10 5 10 -5
0 -17 -5 -25 -10z"/>
<path d="M4580 3815 c14 -17 0 -21 -17 -4 -9 9 -11 5 -9 -15 2 -15 7 -30 11
-34 4 -4 4 3 1 15 -6 17 -4 22 7 17 7 -2 20 3 28 12 9 12 10 15 2 10 -7 -4
-13 -2 -13 3 0 6 -5 11 -11 11 -8 0 -8 -5 1 -15z"/>
<path d="M4278 3795 c17 -14 34 -25 38 -25 5 0 -4 11 -20 25 -16 14 -33 25
-38 25 -5 0 4 -11 20 -25z"/>
<path d="M4526 3805 c-9 -26 -7 -32 5 -12 6 10 9 21 6 23 -2 3 -7 -2 -11 -11z"/>
<path d="M4342 3790 c-7 -12 -8 -20 -2 -20 5 0 10 5 10 11 0 5 5 7 12 3 7 -4
8 -3 4 4 -4 7 -3 12 3 12 5 0 12 -5 14 -10 3 -6 4 -5 3 2 -4 21 -30 20 -44 -2z"/>
<path d="M4438 3792 c-9 -11 -10 -14 0 -8 6 4 12 2 12 -3 0 -6 5 -11 11 -11 8
0 8 5 -1 15 -11 13 -9 15 11 11 13 -3 26 -5 29 -5 3 -1 -2 -6 -10 -11 -9 -6
-10 -10 -3 -10 16 0 23 13 15 26 -11 16 -50 14 -64 -4z"/>
<path d="M4254 3781 c17 -19 17 -20 -12 -35 -16 -8 -32 -22 -36 -31 -3 -8 -11
-14 -18 -13 -7 2 -13 -3 -13 -11 0 -8 6 -15 13 -17 7 -1 8 0 2 3 -11 5 -14 24
-2 21 13 -2 42 14 37 22 -5 7 44 35 58 32 14 -4 7 11 -15 29 -28 25 -36 24
-14 0z"/>
<path d="M4221 3771 c-8 -5 -20 -7 -27 -4 -21 8 -27 -18 -9 -35 16 -16 17 -16
6 6 -7 12 -8 22 -2 22 5 0 12 -6 14 -12 4 -10 6 -10 6 0 1 7 6 10 11 7 6 -3
10 -1 10 5 0 6 5 8 12 4 7 -4 8 -3 4 4 -8 14 -7 14 -25 3z"/>
<path d="M4497 3758 c-7 -5 0 -6 17 -4 16 3 31 7 33 10 8 8 -37 2 -50 -6z"/>
<path d="M4630 3760 c0 -6 4 -9 9 -6 5 4 12 1 14 -4 3 -6 4 -5 3 2 -3 15 -26
23 -26 8z"/>
<path d="M4300 3745 c-9 -10 -9 -15 -1 -15 6 0 11 5 11 10 0 6 5 10 11 10 5 0
7 -5 3 -12 -5 -7 -3 -8 5 -4 8 6 11 2 9 -10 -2 -11 -12 -24 -23 -31 -11 -7
-15 -12 -10 -12 32 -1 54 42 33 66 -14 17 -23 16 -38 -2z"/>
<path d="M4437 3737 c-3 -8 -2 -20 3 -26 5 -9 8 -4 8 13 0 29 -3 32 -11 13z"/>
<path d="M4535 3741 c-3 -5 0 -13 6 -17 7 -4 9 -3 5 4 -3 5 0 13 6 15 9 4 10
6 1 6 -6 1 -14 -3 -18 -8z"/>
<path d="M4620 3733 c12 -25 25 -29 36 -11 5 7 3 8 -5 4 -7 -5 -19 0 -27 10
-14 18 -14 18 -4 -3z"/>
<path d="M4270 3731 c0 -7 -4 -9 -10 -6 -6 4 -7 -1 -3 -11 4 -12 3 -15 -5 -10
-7 4 -15 1 -18 -8 -3 -9 -10 -14 -14 -11 -5 3 -7 -3 -6 -12 2 -11 12 -18 25
-17 15 0 20 -4 17 -13 -4 -9 -1 -11 6 -7 8 5 9 1 4 -12 -5 -14 -4 -16 4 -8 19
19 -5 54 -31 47 -19 -5 -20 -4 -8 15 7 11 16 19 20 16 10 -6 33 36 25 44 -3 3
-6 0 -6 -7z"/>
<path d="M4472 3731 c-11 -6 -9 -9 6 -13 15 -4 19 -2 15 8 -6 16 -4 16 -21 5z"/>
<path d="M4513 3714 c0 -17 2 -22 7 -13 5 6 6 18 3 26 -8 19 -10 16 -10 -13z"/>
<path d="M4397 3711 c14 -17 33 -20 33 -5 0 3 -4 3 -9 0 -5 -3 -11 1 -15 9 -3
8 -10 15 -16 15 -5 0 -2 -9 7 -19z"/>
<path d="M4361 3713 c-1 -17 16 -25 25 -12 4 7 3 9 -4 5 -5 -3 -13 0 -15 6 -4
9 -6 10 -6 1z"/>
<path d="M4030 3700 c0 -5 5 -10 10 -10 6 0 10 5 10 10 0 6 -4 10 -10 10 -5 0
-10 -4 -10 -10z"/>
<path d="M4276 3694 c-8 -20 -8 -24 2 -24 4 0 8 9 9 20 2 24 -3 26 -11 4z"/>
<path d="M4534 3699 c-3 -6 -2 -15 4 -21 6 -6 12 -6 17 3 6 8 4 10 -5 4 -10
-6 -12 -4 -7 8 7 19 2 23 -9 6z"/>
<path d="M4646 3683 c-6 -14 -5 -15 5 -6 7 7 10 15 7 18 -3 3 -9 -2 -12 -12z"/>
<path d="M4085 3679 c-4 -6 -5 -12 -2 -15 2 -3 7 2 10 11 7 17 1 20 -8 4z"/>
<path d="M4150 3685 c0 -5 5 -17 10 -25 5 -8 10 -10 10 -5 0 6 -5 17 -10 25
-5 8 -10 11 -10 5z"/>
<path d="M4350 3681 c0 -10 19 -25 25 -20 1 2 -3 10 -11 17 -8 7 -14 8 -14 3z"/>
<path d="M4393 3675 c0 -8 4 -12 9 -9 5 3 6 10 3 15 -9 13 -12 11 -12 -6z"/>
<path d="M4436 3678 c3 -4 0 -8 -7 -8 -7 0 -10 -3 -6 -6 3 -3 12 -2 19 2 21
14 40 13 35 0 -3 -7 1 -13 8 -13 8 0 11 7 7 15 -4 11 -1 13 9 7 8 -5 11 -4 6
1 -10 11 -78 13 -71 2z"/>
<path d="M4040 3676 c0 -2 7 -9 15 -16 9 -7 15 -8 15 -2 0 5 -7 12 -15 16 -8
3 -15 4 -15 2z"/>
<path d="M4320 3666 c0 -2 7 -7 16 -10 8 -3 12 -2 9 4 -6 10 -25 14 -25 6z"/>
<path d="M3961 3657 c-1 -5 4 -17 9 -27 10 -19 40 -17 40 2 0 6 -8 4 -17 -3
-15 -12 -16 -12 -10 4 4 10 3 16 -2 12 -5 -3 -12 1 -14 7 -3 7 -6 9 -6 5z"/>
<path d="M4515 3646 l-30 -13 27 1 c15 0 30 7 33 14 2 6 3 12 2 12 -1 -1 -15
-7 -32 -14z"/>
<path d="M4573 3643 c1 -15 5 -19 12 -13 6 5 21 8 34 5 12 -2 19 0 17 4 -3 5
-16 8 -28 7 -13 -1 -26 3 -30 9 -4 5 -6 0 -5 -12z"/>
<path d="M4030 3635 c0 -8 2 -15 4 -15 2 0 6 7 10 15 3 8 1 15 -4 15 -6 0 -10
-7 -10 -15z"/>
<path d="M4108 3632 c9 -10 19 -17 21 -16 6 5 -20 34 -30 34 -5 0 -1 -8 9 -18z"/>
<path d="M4180 3643 c0 -5 12 -9 27 -10 19 -1 22 1 12 8 -17 11 -39 12 -39 2z"/>
<path d="M4308 3643 c7 -3 16 -2 19 1 4 3 -2 6 -13 5 -11 0 -14 -3 -6 -6z"/>
<path d="M4360 3640 c-8 -5 -10 -10 -5 -10 6 0 17 5 25 10 8 5 11 10 5 10 -5
0 -17 -5 -25 -10z"/>
<path d="M4070 3629 c0 -6 -5 -7 -12 -3 -6 4 -8 3 -5 -4 4 -5 16 -8 27 -5 24
6 25 9 5 17 -8 3 -15 1 -15 -5z"/>
<path d="M4455 3630 c-3 -6 1 -7 9 -4 18 7 21 14 7 14 -6 0 -13 -4 -16 -10z"/>
<path d="M3954 3617 c5 -15 2 -17 -13 -12 -24 7 -33 -6 -19 -25 8 -12 9 -11 4
3 -5 15 -2 17 13 12 24 -7 33 6 19 25 -8 12 -9 11 -4 -3z"/>
<path d="M4140 3611 c0 -10 19 -25 25 -20 1 2 -3 10 -11 17 -8 7 -14 8 -14 3z"/>
<path d="M4200 3611 c0 -6 4 -13 10 -16 6 -3 7 1 4 9 -7 18 -14 21 -14 7z"/>
<path d="M4380 3608 c20 -17 20 -76 0 -88 -9 -6 -10 -10 -3 -10 16 0 28 20 28
51 0 14 7 34 15 45 10 13 10 15 0 7 -9 -9 -19 -9 -34 -2 -18 9 -19 8 -6 -3z"/>
<path d="M3874 3599 c-3 -6 -1 -16 5 -22 6 -6 11 -7 11 -3 0 5 9 -2 21 -15
l20 -24 -17 27 c-9 15 -21 25 -27 21 -6 -4 -8 0 -4 10 7 19 2 23 -9 6z"/>
<path d="M4010 3600 c0 -5 5 -10 10 -10 6 0 10 5 10 10 0 6 -4 10 -10 10 -5 0
-10 -4 -10 -10z"/>
<path d="M4090 3602 c0 -5 7 -9 15 -9 8 0 12 4 9 9 -3 4 -9 8 -15 8 -5 0 -9
-4 -9 -8z"/>
<path d="M4230 3590 c-8 -15 -8 -18 3 -14 8 3 14 11 14 19 0 20 -4 19 -17 -5z"/>
<path d="M4290 3597 c0 -6 3 -7 7 -4 3 4 14 0 23 -8 14 -13 16 -12 16 3 0 11
-9 18 -23 18 -13 1 -23 -3 -23 -9z"/>
<path d="M4440 3606 c0 -2 8 -10 18 -17 15 -13 16 -12 3 4 -13 16 -21 21 -21
13z"/>
<path d="M4539 3593 c-12 -16 -12 -17 2 -6 9 7 19 10 22 6 4 -3 7 -1 7 5 0 17
-16 15 -31 -5z"/>
<path d="M3990 3594 c0 -6 7 -19 16 -30 14 -18 14 -18 3 6 -14 31 -19 36 -19
24z"/>
<path d="M4179 3588 c0 -2 -2 -13 -3 -26 -3 -21 -2 -21 16 -5 22 20 23 24 1
16 -11 -4 -14 -3 -9 5 4 7 5 12 2 12 -3 0 -6 -1 -7 -2z"/>
<path d="M4265 3583 c16 -12 12 -52 -5 -63 -8 -5 -10 -10 -4 -10 30 0 42 70
14 77 -9 3 -11 1 -5 -4z"/>
<path d="M4360 3580 c-9 -6 -10 -10 -3 -10 6 0 15 5 18 10 8 12 4 12 -15 0z"/>
<path d="M4040 3575 c0 -5 5 -17 10 -25 5 -8 10 -10 10 -5 0 6 -5 17 -10 25
-5 8 -10 11 -10 5z"/>
<path d="M4575 3570 c-4 -6 -12 -7 -18 -4 -7 4 -8 3 -4 -1 13 -15 34 -14 34 1
0 17 -4 18 -12 4z"/>
<path d="M3952 3561 c-11 -6 -10 -10 4 -15 9 -3 19 -4 22 -1 3 3 0 5 -7 5 -7
0 -9 5 -6 10 7 12 4 12 -13 1z"/>
<path d="M4076 3562 c-3 -4 4 -9 15 -9 23 -2 25 3 4 10 -8 4 -16 3 -19 -1z"/>
<path d="M4126 3561 c-3 -5 1 -11 9 -14 9 -4 12 -1 8 9 -6 16 -10 17 -17 5z"/>
<path d="M4444 3562 c4 -3 14 -7 22 -8 9 -1 13 0 10 4 -4 3 -14 7 -22 8 -9 1
-13 0 -10 -4z"/>
<path d="M4309 3543 c-13 -16 -12 -17 4 -4 9 7 17 15 17 17 0 8 -8 3 -21 -13z"/>
<path d="M4454 3520 c0 -13 4 -16 10 -10 7 7 7 13 0 20 -6 6 -10 3 -10 -10z"/>
<path d="M4554 3520 c0 -13 4 -16 10 -10 7 7 7 13 0 20 -6 6 -10 3 -10 -10z"/>
<path d="M4676 3527 c3 -10 9 -15 12 -12 3 3 0 11 -7 18 -10 9 -11 8 -5 -6z"/>
<path d="M3970 3526 c0 -2 7 -7 16 -10 8 -3 12 -2 9 4 -6 10 -25 14 -25 6z"/>
<path d="M4053 3515 c0 -8 4 -12 9 -9 5 3 6 10 3 15 -9 13 -12 11 -12 -6z"/>
<path d="M4590 3521 c0 -6 4 -13 10 -16 6 -3 7 1 4 9 -7 18 -14 21 -14 7z"/>
<path d="M4156 3498 c3 -5 10 -6 15 -3 13 9 11 12 -6 12 -8 0 -12 -4 -9 -9z"/>
<path d="M4014 3479 c0 -13 3 -15 13 -7 7 6 13 12 13 13 0 2 -6 5 -13 8 -7 3
-13 -3 -13 -14z"/>
<path d="M4130 3496 c0 -2 8 -10 18 -17 15 -13 16 -12 3 4 -13 16 -21 21 -21
13z"/>
<path d="M4703 3493 c-18 -7 -16 -30 3 -37 8 -3 12 -11 8 -17 -4 -8 -9 -7 -15
2 -5 8 -9 9 -9 3 0 -15 29 -39 37 -30 3 3 0 6 -8 6 -12 0 -12 2 0 9 12 8 12
12 2 24 -9 12 -9 16 1 20 11 4 10 6 0 6 -7 1 -10 6 -7 11 7 11 6 11 -12 3z"/>
<path d="M3953 3474 c0 -9 4 -11 12 -4 7 5 14 9 16 7 2 -1 3 0 1 2 -7 11 -29
7 -29 -5z"/>
<path d="M4195 3480 c3 -5 8 -10 11 -10 2 0 4 5 4 10 0 6 -5 10 -11 10 -5 0
-7 -4 -4 -10z"/>
<path d="M4245 3480 c-5 -7 52 -6 60 1 2 3 -9 5 -26 5 -16 0 -32 -3 -34 -6z"/>
<path d="M4396 3478 c3 -5 10 -6 15 -3 13 9 11 12 -6 12 -8 0 -12 -4 -9 -9z"/>
<path d="M4467 3479 c7 -7 15 -10 18 -7 3 3 -2 9 -12 12 -14 6 -15 5 -6 -5z"/>
<path d="M4066 3460 c6 -8 10 -23 8 -33 -1 -11 0 -16 4 -13 12 13 10 36 -6 48
-15 11 -15 11 -6 -2z"/>
<path d="M3975 3450 c-4 -6 -12 -7 -18 -4 -7 4 -9 4 -5 -1 4 -4 2 -15 -4 -24
-10 -12 -7 -12 8 2 11 9 23 15 26 12 2 -3 5 2 5 10 0 18 -3 19 -12 5z"/>
<path d="M4396 3447 c3 -10 9 -15 12 -12 3 3 0 11 -7 18 -10 9 -11 8 -5 -6z"/>
<path d="M4437 3453 c-10 -9 -9 -23 1 -23 5 0 9 7 9 15 0 17 -1 18 -10 8z"/>
<path d="M4150 3441 c0 -6 4 -13 10 -16 6 -3 7 1 4 9 -7 18 -14 21 -14 7z"/>
<path d="M4473 3435 c0 -8 4 -12 9 -9 5 3 6 10 3 15 -9 13 -12 11 -12 -6z"/>
<path d="M3995 3421 c-3 -5 -2 -12 3 -15 5 -3 9 1 9 9 0 17 -3 19 -12 6z"/>
<path d="M4510 3425 c0 -7 30 -13 34 -7 3 4 -4 9 -15 9 -10 1 -19 0 -19 -2z"/>
<path d="M4590 3420 c0 -5 5 -10 11 -10 5 0 7 5 4 10 -3 6 -8 10 -11 10 -2 0
-4 -4 -4 -10z"/>
<path d="M4680 3395 c-11 -13 -10 -14 4 -9 9 3 16 10 16 15 0 13 -6 11 -20 -6z"/>
<path d="M4716 3385 c4 -10 1 -14 -7 -12 -8 2 -10 2 -6 -1 4 -2 2 -11 -5 -20
-11 -15 -11 -15 3 -5 9 7 18 11 20 8 3 -2 5 5 6 15 1 11 -2 22 -8 25 -5 3 -6
-1 -3 -10z"/>
<path d="M4280 3380 c-12 -7 -10 -9 7 -7 12 0 19 5 17 9 -6 10 -6 10 -24 -2z"/>
<path d="M4370 3380 c0 -5 5 -10 11 -10 5 0 7 5 4 10 -3 6 -8 10 -11 10 -2 0
-4 -4 -4 -10z"/>
<path d="M4010 3376 c0 -2 8 -10 18 -17 15 -13 16 -12 3 4 -13 16 -21 21 -21
13z"/>
<path d="M4115 3371 c-3 -5 -2 -12 3 -15 5 -3 9 1 9 9 0 17 -3 19 -12 6z"/>
<path d="M4610 3366 c0 -2 7 -7 16 -10 8 -3 12 -2 9 4 -6 10 -25 14 -25 6z"/>
<path d="M4415 3340 c3 -5 8 -10 11 -10 2 0 4 5 4 10 0 6 -5 10 -11 10 -5 0
-7 -4 -4 -10z"/>
<path d="M4450 3339 c0 -5 5 -7 10 -4 6 3 10 8 10 11 0 2 -4 4 -10 4 -5 0 -10
-5 -10 -11z"/>
<path d="M4486 3338 c3 -5 10 -6 15 -3 13 9 11 12 -6 12 -8 0 -12 -4 -9 -9z"/>
<path d="M4700 3330 c-12 -7 -10 -9 8 -7 12 0 22 5 22 9 0 11 -12 10 -30 -2z"/>
<path d="M3956 3322 c-3 -5 1 -9 9 -9 8 0 12 4 9 9 -3 4 -7 8 -9 8 -2 0 -6 -4
-9 -8z"/>
<path d="M4025 3320 c-3 -6 1 -7 9 -4 18 7 21 14 7 14 -6 0 -13 -4 -16 -10z"/>
<path d="M4116 3318 c3 -5 10 -6 15 -3 13 9 11 12 -6 12 -8 0 -12 -4 -9 -9z"/>
<path d="M4156 3313 c-6 -14 -5 -15 5 -6 7 7 10 15 7 18 -3 3 -9 -2 -12 -12z"/>
<path d="M4239 3313 c-13 -16 -12 -17 4 -4 16 13 21 21 13 21 -2 0 -10 -8 -17
-17z"/>
<path d="M4307 3319 c7 -7 15 -10 18 -7 3 3 -2 9 -12 12 -14 6 -15 5 -6 -5z"/>
<path d="M4696 3294 c-9 -23 -4 -24 17 -2 13 14 14 18 3 18 -8 0 -17 -7 -20
-16z"/>
<path d="M4086 3282 c-3 -5 1 -9 9 -9 8 0 12 4 9 9 -3 4 -7 8 -9 8 -2 0 -6 -4
-9 -8z"/>
<path d="M4174 3282 c4 -3 14 -7 22 -8 9 -1 13 0 10 4 -4 3 -14 7 -22 8 -9 1
-13 0 -10 -4z"/>
<path d="M4226 3278 c3 -5 10 -6 15 -3 13 9 11 12 -6 12 -8 0 -12 -4 -9 -9z"/>
<path d="M4270 3280 c0 -5 5 -10 11 -10 5 0 7 5 4 10 -3 6 -8 10 -11 10 -2 0
-4 -4 -4 -10z"/>
<path d="M4711 3271 c-6 -10 -7 -21 -4 -25 13 -12 21 -5 21 19 0 30 -4 31 -17
6z"/>
<path d="M4010 3260 c0 -5 5 -10 11 -10 5 0 7 5 4 10 -3 6 -8 10 -11 10 -2 0
-4 -4 -4 -10z"/>
<path d="M4210 3240 c0 -5 5 -10 11 -10 5 0 7 5 4 10 -3 6 -8 10 -11 10 -2 0
-4 -4 -4 -10z"/>
<path d="M4256 3242 c-3 -5 1 -9 9 -9 8 0 12 4 9 9 -3 4 -7 8 -9 8 -2 0 -6 -4
-9 -8z"/>
<path d="M4696 3214 c-9 -24 -7 -31 5 -11 5 9 15 17 20 17 6 0 4 -9 -4 -20 -8
-11 -13 -34 -11 -51 2 -18 0 -28 -6 -24 -6 3 -10 1 -10 -4 0 -11 11 -14 28 -8
4 1 7 21 7 44 0 23 4 45 8 49 3 4 4 11 1 15 -9 14 -31 10 -38 -7z"/>
<path d="M4150 3216 c0 -2 8 -10 18 -17 15 -13 16 -12 3 4 -13 16 -21 21 -21
13z"/>
<path d="M4053 3169 c-2 -23 3 -25 10 -4 4 8 3 16 -1 19 -4 3 -9 -4 -9 -15z"/>
<path d="M4110 3100 c0 -5 5 -10 11 -10 5 0 7 5 4 10 -3 6 -8 10 -11 10 -2 0
-4 -4 -4 -10z"/>
<path d="M4680 2800 c0 -5 5 -10 10 -10 6 0 10 5 10 10 0 6 -4 10 -10 10 -5 0
-10 -4 -10 -10z"/>
<path d="M3814 1736 c1 -8 5 -18 8 -22 4 -3 5 1 4 10 -1 8 -5 18 -8 22 -4 3
-5 -1 -4 -10z"/>
<path d="M3735 1700 c3 -5 8 -10 11 -10 2 0 4 5 4 10 0 6 -5 10 -11 10 -5 0
-7 -4 -4 -10z"/>
<path d="M3835 1649 c-4 -6 -5 -12 -2 -15 2 -3 7 2 10 11 7 17 1 20 -8 4z"/>
<path d="M3695 1620 c-3 -5 -1 -10 4 -10 6 0 11 5 11 10 0 6 -2 10 -4 10 -3 0
-8 -4 -11 -10z"/>
<path d="M3730 1619 c0 -5 5 -7 10 -4 6 3 10 8 10 11 0 2 -4 4 -10 4 -5 0 -10
-5 -10 -11z"/>
<path d="M3775 1619 c-3 -4 2 -6 10 -5 21 3 28 13 10 13 -9 0 -18 -4 -20 -8z"/>
<path d="M3750 1585 c0 -7 30 -13 34 -7 3 4 -4 9 -15 9 -10 1 -19 0 -19 -2z"/>
<path d="M3474 1566 c1 -8 5 -18 8 -22 4 -3 5 1 4 10 -1 8 -5 18 -8 22 -4 3
-5 -1 -4 -10z"/>
<path d="M3535 1569 c-4 -6 -5 -12 -2 -15 2 -3 7 2 10 11 7 17 1 20 -8 4z"/>
<path d="M3669 1563 c-13 -16 -12 -17 4 -4 9 7 17 15 17 17 0 8 -8 3 -21 -13z"/>
<path d="M3716 1558 c3 -5 10 -6 15 -3 13 9 11 12 -6 12 -8 0 -12 -4 -9 -9z"/>
<path d="M3346 1522 c-2 -4 4 -8 14 -8 10 0 16 4 14 8 -3 4 -9 8 -14 8 -5 0
-11 -4 -14 -8z"/>
<path d="M3433 1513 c0 -6 5 -9 11 -5 6 4 14 7 18 7 19 0 14 11 -6 11 -12 0
-23 -6 -23 -13z"/>
<path d="M3309 1503 c-13 -16 -12 -17 4 -4 16 13 21 21 13 21 -2 0 -10 -8 -17
-17z"/>
<path d="M3390 1516 c0 -2 8 -10 18 -17 15 -13 16 -12 3 4 -13 16 -21 21 -21
13z"/>
<path d="M3695 1499 c-3 -4 2 -6 10 -5 21 3 28 13 10 13 -9 0 -18 -4 -20 -8z"/>
<path d="M3324 1478 c-12 -14 -13 -18 -3 -10 9 6 18 10 21 7 2 -3 5 2 5 10 0
19 0 19 -23 -7z"/>
<path d="M3436 1482 c-3 -5 1 -9 9 -9 8 0 12 4 9 9 -3 4 -7 8 -9 8 -2 0 -6 -4
-9 -8z"/>
<path d="M3560 1480 c-9 -6 -10 -10 -3 -10 6 0 15 5 18 10 8 12 4 12 -15 0z"/>
<path d="M3775 1480 c3 -5 8 -10 11 -10 2 0 4 5 4 10 0 6 -5 10 -11 10 -5 0
-7 -4 -4 -10z"/>
<path d="M3514 1466 c1 -8 5 -18 8 -22 4 -3 5 1 4 10 -1 8 -5 18 -8 22 -4 3
-5 -1 -4 -10z"/>
<path d="M3279 1453 c-13 -16 -12 -17 4 -4 16 13 21 21 13 21 -2 0 -10 -8 -17
-17z"/>
<path d="M3235 1432 c-14 -20 -15 -24 -2 -14 9 8 20 11 26 8 5 -3 7 3 4 14 -6
24 -4 25 -28 -8z"/>
<path d="M3337 1453 c-10 -9 -9 -23 1 -23 5 0 9 7 9 15 0 17 -1 18 -10 8z"/>
<path d="M3410 1439 c0 -5 5 -7 10 -4 6 3 10 8 10 11 0 2 -4 4 -10 4 -5 0 -10
-5 -10 -11z"/>
<path d="M3550 1439 c0 -5 5 -7 10 -4 6 3 10 8 10 11 0 2 -4 4 -10 4 -5 0 -10
-5 -10 -11z"/>
<path d="M3655 1431 c-3 -5 -2 -12 3 -15 5 -3 9 1 9 9 0 17 -3 19 -12 6z"/>
<path d="M3315 1410 c10 -11 20 -20 23 -20 3 0 -3 9 -13 20 -10 11 -20 20 -23
20 -3 0 3 -9 13 -20z"/>
<path d="M3188 1413 c7 -3 16 -2 19 1 4 3 -2 6 -13 5 -11 0 -14 -3 -6 -6z"/>
<path d="M3597 1413 c-10 -9 -9 -23 1 -23 5 0 9 7 9 15 0 17 -1 18 -10 8z"/>
<path d="M3039 1393 c-13 -17 -13 -17 6 -3 11 8 22 16 24 17 2 2 0 3 -6 3 -6
0 -17 -8 -24 -17z"/>
<path d="M3240 1405 c0 -2 6 -8 13 -14 10 -8 14 -7 14 2 0 8 -6 14 -14 14 -7
0 -13 -1 -13 -2z"/>
<path d="M3436 1402 c-3 -5 1 -9 9 -9 8 0 12 4 9 9 -3 4 -7 8 -9 8 -2 0 -6 -4
-9 -8z"/>
<path d="M3545 1400 c-3 -6 1 -7 9 -4 18 7 21 14 7 14 -6 0 -13 -4 -16 -10z"/>
<path d="M2995 1380 c-3 -6 1 -7 9 -4 18 7 21 14 7 14 -6 0 -13 -4 -16 -10z"/>
<path d="M3067 1373 c5 -12 3 -14 -8 -8 -8 5 -11 4 -6 0 4 -5 14 -10 22 -11
12 -2 12 2 5 17 -13 23 -22 25 -13 2z"/>
<path d="M3354 1368 l-19 -23 23 19 c12 11 22 21 22 23 0 8 -8 2 -26 -19z"/>
<path d="M3134 1369 c1 -7 10 -13 19 -15 9 -1 15 2 11 7 -3 5 -9 7 -14 4 -4
-3 -11 0 -13 5 -3 6 -4 5 -3 -1z"/>
<path d="M2945 1360 c-3 -5 -1 -10 4 -10 6 0 11 5 11 10 0 6 -2 10 -4 10 -3 0
-8 -4 -11 -10z"/>
<path d="M3000 1360 c-8 -5 -10 -10 -5 -10 6 0 17 5 25 10 8 5 11 10 5 10 -5
0 -17 -5 -25 -10z"/>
<path d="M3256 1353 c-6 -14 -5 -15 5 -6 7 7 10 15 7 18 -3 3 -9 -2 -12 -12z"/>
<path d="M2975 1340 c6 -9 -7 -14 -27 -11 -4 0 -5 -6 -2 -13 5 -12 9 -12 24 2
17 14 19 32 4 32 -3 0 -2 -4 1 -10z"/>
<path d="M3196 1338 c3 -5 10 -6 15 -3 13 9 11 12 -6 12 -8 0 -12 -4 -9 -9z"/>
<path d="M3515 1339 c-3 -4 2 -6 10 -5 21 3 28 13 10 13 -9 0 -18 -4 -20 -8z"/>
<path d="M2902 1320 c7 -11 16 -20 20 -20 5 0 3 9 -4 20 -7 11 -16 20 -20 20
-5 0 -3 -9 4 -20z"/>
<path d="M3130 1331 c-8 -6 -19 -7 -25 -3 -5 3 -4 -1 3 -10 10 -13 10 -17 0
-21 -7 -3 -3 -4 9 -4 15 1 19 5 13 11 -6 6 -3 14 8 22 20 15 14 18 -8 5z"/>
<path d="M3336 1327 c3 -10 9 -15 12 -12 3 3 0 11 -7 18 -10 9 -11 8 -5 -6z"/>
<path d="M2861 1316 c-9 -10 -9 -16 -1 -21 17 -10 37 12 24 25 -8 8 -15 6 -23
-4z m19 -6 c0 -5 -5 -10 -11 -10 -5 0 -7 5 -4 10 3 6 8 10 11 10 2 0 4 -4 4
-10z"/>
<path d="M3219 1313 c-13 -16 -12 -17 4 -4 9 7 17 15 17 17 0 8 -8 3 -21 -13z"/>
<path d="M2990 1310 c0 -5 5 -10 11 -10 5 0 7 5 4 10 -3 6 -8 10 -11 10 -2 0
-4 -4 -4 -10z"/>
<path d="M3153 1307 c0 -8 6 -14 14 -14 9 0 10 4 2 14 -6 7 -12 13 -14 13 -1
0 -2 -6 -2 -13z"/>
<path d="M2805 1300 c-16 -7 -17 -9 -3 -9 9 -1 20 4 23 9 7 11 7 11 -20 0z"/>
<path d="M2822 1281 c-11 -7 -11 -9 1 -14 16 -6 27 0 27 15 0 10 -11 10 -28
-1z"/>
<path d="M2876 1275 c-11 -8 -21 -25 -22 -37 -2 -13 0 -17 2 -11 3 7 5 15 4
19 -1 4 11 15 27 25 15 10 24 19 18 19 -5 -1 -19 -7 -29 -15z"/>
<path d="M2914 1272 c-17 -13 -20 -22 -13 -37 l9 -20 -3 20 c-2 12 7 27 23 37
14 10 21 18 15 18 -5 0 -20 -8 -31 -18z"/>
<path d="M2966 1278 c3 -4 9 -8 15 -8 5 0 9 4 9 8 0 5 -7 9 -15 9 -8 0 -12 -4
-9 -9z"/>
<path d="M3033 1273 c0 -10 4 -10 16 -1 9 7 18 13 20 15 2 1 -5 1 -16 0 -11 0
-20 -7 -20 -14z"/>
<path d="M2935 1260 c-3 -6 1 -7 9 -4 18 7 21 14 7 14 -6 0 -13 -4 -16 -10z"/>
<path d="M3060 1264 c0 -1 8 -8 17 -15 9 -8 14 -9 10 -2 -4 6 -1 13 5 16 7 3
3 4 -9 4 -13 -1 -23 -2 -23 -3z"/>
<path d="M3375 1260 c-3 -5 -1 -10 4 -10 6 0 11 5 11 10 0 6 -2 10 -4 10 -3 0
-8 -4 -11 -10z"/>
<path d="M2730 1256 c0 -2 8 -10 18 -17 15 -13 16 -12 3 4 -13 16 -21 21 -21
13z"/>
<path d="M2783 1253 c-15 -6 -17 -29 -4 -38 5 -3 13 0 17 6 5 8 3 9 -6 4 -8
-5 -11 -3 -8 6 3 8 11 13 17 12 6 -2 11 2 11 7 0 11 -7 12 -27 3z"/>
<path d="M3174 1240 c0 -13 4 -16 10 -10 7 7 7 13 0 20 -6 6 -10 3 -10 -10z"/>
<path d="M3233 1245 c0 -8 4 -12 9 -9 5 3 6 10 3 15 -9 13 -12 11 -12 -6z"/>
<path d="M3099 1233 c-13 -16 -12 -17 4 -4 9 7 17 15 17 17 0 8 -8 3 -21 -13z"/>
<path d="M3455 1240 c3 -5 8 -10 11 -10 2 0 4 5 4 10 0 6 -5 10 -11 10 -5 0
-7 -4 -4 -10z"/>
<path d="M2814 1222 c3 -5 0 -13 -6 -15 -9 -4 -10 -6 -1 -6 17 -1 25 16 12 25
-7 4 -9 3 -5 -4z"/>
<path d="M2870 1220 c0 -5 5 -10 10 -10 6 0 10 5 10 10 0 6 -4 10 -10 10 -5 0
-10 -4 -10 -10z"/>
<path d="M3030 1216 c7 -7 13 -7 20 0 6 6 3 10 -10 10 -13 0 -16 -4 -10 -10z"/>
<path d="M3335 1220 c-3 -5 -1 -10 4 -10 6 0 11 5 11 10 0 6 -2 10 -4 10 -3 0
-8 -4 -11 -10z"/>
<path d="M2618 1195 c-12 -27 -30 -25 -22 3 5 14 3 14 -6 -2 -10 -14 -10 -20
1 -27 16 -10 39 7 39 30 0 13 2 13 9 2 5 -8 11 -9 15 -3 3 5 -1 13 -9 16 -10
4 -20 -3 -27 -19z"/>
<path d="M2840 1196 c0 -8 4 -17 9 -20 5 -4 7 3 4 14 -6 23 -13 26 -13 6z"/>
<path d="M3007 1199 c7 -7 15 -10 18 -7 3 3 -2 9 -12 12 -14 6 -15 5 -6 -5z"/>
<path d="M3124 1202 c4 -3 14 -7 22 -8 9 -1 13 0 10 4 -4 3 -14 7 -22 8 -9 1
-13 0 -10 -4z"/>
<path d="M3430 1196 c7 -7 13 -7 20 0 6 6 3 10 -10 10 -13 0 -16 -4 -10 -10z"/>
<path d="M2776 1183 c-6 -14 -5 -15 5 -6 7 7 10 15 7 18 -3 3 -9 -2 -12 -12z"/>
<path d="M2647 1175 c-15 -11 -17 -17 -7 -32 10 -15 11 -16 6 -1 -3 10 2 21
12 27 9 5 15 12 12 14 -3 3 -13 -1 -23 -8z"/>
<path d="M2791 1167 c-13 -21 -12 -21 5 -5 10 10 16 20 13 22 -3 3 -11 -5 -18
-17z"/>
<path d="M2980 1186 c0 -2 8 -10 18 -17 15 -13 16 -12 3 4 -13 16 -21 21 -21
13z"/>
<path d="M3294 1182 c4 -3 14 -7 22 -8 9 -1 13 0 10 4 -4 3 -14 7 -22 8 -9 1
-13 0 -10 -4z"/>
<path d="M2932 1171 c-11 -6 -10 -10 0 -19 11 -8 14 -7 14 9 0 10 0 19 -1 19
0 0 -6 -4 -13 -9z"/>
<path d="M2671 1160 c-9 -5 -4 -7 13 -7 29 0 32 2 13 10 -8 3 -20 2 -26 -3z"/>
<path d="M2750 1161 c0 -6 4 -13 10 -16 6 -3 7 1 4 9 -7 18 -14 21 -14 7z"/>
<path d="M2817 1156 c-4 -10 1 -12 14 -9 23 6 24 9 5 16 -8 3 -17 0 -19 -7z"/>
<path d="M2865 1160 c-3 -6 1 -7 9 -4 18 7 21 14 7 14 -6 0 -13 -4 -16 -10z"/>
<path d="M3233 1155 c0 -8 4 -12 9 -9 5 3 6 10 3 15 -9 13 -12 11 -12 -6z"/>
<path d="M2459 1139 c-9 -17 -7 -24 10 -40 12 -11 21 -15 21 -9 0 6 -7 13 -15
16 -22 9 -18 24 6 24 11 0 17 -4 14 -10 -3 -5 -1 -10 4 -10 19 0 12 22 -9 27
-11 3 -17 9 -14 14 3 5 3 9 0 9 -3 0 -10 -9 -17 -21z"/>
<path d="M2590 1140 c8 -5 18 -6 23 -3 5 3 6 -4 3 -15 -4 -11 -2 -23 3 -27 7
-4 8 1 4 11 -5 12 -3 15 6 9 10 -6 11 -3 3 12 -6 10 -21 19 -34 20 -17 2 -19
0 -8 -7z"/>
<path d="M2990 1136 c7 -7 13 -7 20 0 6 6 3 10 -10 10 -13 0 -16 -4 -10 -10z"/>
<path d="M2676 1124 c-4 -9 -4 -19 -1 -22 3 -3 5 0 5 7 0 7 4 9 10 6 6 -3 7 1
4 9 -8 20 -10 20 -18 0z"/>
<path d="M2715 1130 c3 -5 8 -10 11 -10 2 0 4 5 4 10 0 6 -5 10 -11 10 -5 0
-7 -4 -4 -10z"/>
<path d="M2780 1131 c0 -7 -5 -9 -12 -5 -7 5 -8 3 -3 -5 5 -9 10 -10 18 -2 6
6 8 14 4 18 -4 3 -7 1 -7 -6z"/>
<path d="M2417 1124 c-3 -3 -3 -13 0 -22 5 -11 3 -13 -8 -7 -22 14 -52 14 -79
-2 -14 -8 -17 -12 -7 -9 13 4 17 1 15 -11 -2 -12 4 -18 20 -19 12 -1 25 3 28
8 3 5 11 4 19 -2 15 -12 31 3 20 19 -3 5 -1 12 5 16 5 3 10 2 10 -2 0 -5 6
-17 13 -28 11 -14 16 -15 22 -5 6 9 4 11 -5 5 -10 -6 -12 -4 -6 11 4 10 4 16
1 12 -8 -8 -43 24 -38 35 5 8 -1 9 -10 1z m-47 -41 c1 -17 1 -17 11 0 8 14 14
16 25 6 8 -6 14 -16 14 -21 0 -7 -5 -6 -13 1 -8 6 -17 8 -21 4 -3 -4 -15 -8
-25 -10 -15 -2 -18 2 -14 17 7 25 23 26 23 3z"/>
<path d="M2525 1120 c-3 -6 1 -7 9 -4 18 7 21 14 7 14 -6 0 -13 -4 -16 -10z"/>
<path d="M2791 1108 c-13 -21 -13 -22 2 -10 9 8 22 10 29 6 10 -6 9 -3 -1 9
-17 21 -13 21 -30 -5z"/>
<path d="M2539 1108 c-6 -21 -5 -37 2 -32 5 3 7 9 4 14 -3 4 1 11 7 13 10 4
10 6 1 6 -7 1 -13 0 -14 -1z"/>
<path d="M2713 1088 c-2 -18 0 -20 7 -8 12 18 13 30 2 30 -4 0 -9 -10 -9 -22z"/>
<path d="M2511 1084 c0 -11 3 -14 6 -6 3 7 2 16 -1 19 -3 4 -6 -2 -5 -13z"/>
<path d="M2596 1087 c3 -10 9 -15 12 -12 3 3 0 11 -7 18 -10 9 -11 8 -5 -6z"/>
<path d="M2889 1083 c-13 -16 -12 -17 4 -4 16 13 21 21 13 21 -2 0 -10 -8 -17
-17z"/>
<path d="M3135 1079 c-3 -4 2 -6 10 -5 21 3 28 13 10 13 -9 0 -18 -4 -20 -8z"/>
<path d="M2829 1063 c-13 -16 -12 -17 4 -4 16 13 21 21 13 21 -2 0 -10 -8 -17
-17z"/>
<path d="M2300 1059 c0 -5 5 -7 10 -4 6 3 10 8 10 11 0 2 -4 4 -10 4 -5 0 -10
-5 -10 -11z"/>
<path d="M2497 1053 c4 -10 2 -14 -5 -9 -6 3 -14 1 -18 -5 -4 -7 -3 -9 4 -5 5
3 13 0 15 -6 4 -10 6 -10 6 0 1 7 6 10 12 6 8 -4 8 0 0 15 -14 25 -23 28 -14
4z"/>
<path d="M2635 1061 c-3 -5 -2 -12 3 -15 5 -3 9 1 9 9 0 17 -3 19 -12 6z"/>
<path d="M2668 1063 c7 -3 16 -2 19 1 4 3 -2 6 -13 5 -11 0 -14 -3 -6 -6z"/>
<path d="M2786 1058 c3 -5 10 -6 15 -3 13 9 11 12 -6 12 -8 0 -12 -4 -9 -9z"/>
<path d="M3010 1059 c0 -5 5 -7 10 -4 6 3 10 8 10 11 0 2 -4 4 -10 4 -5 0 -10
-5 -10 -11z"/>
<path d="M2694 1049 c-3 -6 -2 -15 3 -20 5 -5 9 -1 9 11 0 23 -2 24 -12 9z"/>
<path d="M2734 1040 c0 -13 4 -16 10 -10 7 7 7 13 0 20 -6 6 -10 3 -10 -10z"/>
<path d="M2205 1040 c-3 -5 -1 -10 4 -10 6 0 11 5 11 10 0 6 -2 10 -4 10 -3 0
-8 -4 -11 -10z"/>
<path d="M2319 1043 c-1 -5 -1 -12 0 -17 1 -5 -5 -6 -14 -3 -22 9 -18 -1 6
-14 17 -9 20 -8 14 2 -6 9 -3 11 11 6 18 -7 18 -6 2 6 -10 8 -15 17 -11 20 3
4 3 7 0 7 -4 0 -8 -3 -8 -7z"/>
<path d="M2420 1040 c-8 -5 -10 -10 -5 -10 6 0 17 5 25 10 8 5 11 10 5 10 -5
0 -17 -5 -25 -10z"/>
<path d="M2565 1040 c-3 -6 1 -7 9 -4 18 7 21 14 7 14 -6 0 -13 -4 -16 -10z"/>
<path d="M2767 1039 c7 -7 15 -10 18 -7 3 3 -2 9 -12 12 -14 6 -15 5 -6 -5z"/>
<path d="M2866 1038 c3 -5 10 -6 15 -3 13 9 11 12 -6 12 -8 0 -12 -4 -9 -9z"/>
<path d="M2174 1032 c3 -5 0 -13 -6 -15 -9 -4 -10 -6 -1 -6 17 -1 25 16 12 25
-7 4 -9 3 -5 -4z"/>
<path d="M2350 1036 c0 -3 9 -10 20 -16 11 -6 20 -8 20 -6 0 3 -9 10 -20 16
-11 6 -20 8 -20 6z"/>
<path d="M2230 1021 c0 -6 4 -12 8 -15 5 -3 9 1 9 9 0 8 -4 15 -9 15 -4 0 -8
-4 -8 -9z"/>
<path d="M2439 1028 c0 -2 -2 -10 -4 -19 -3 -19 22 -21 29 -3 3 9 -1 11 -11 7
-11 -4 -14 -2 -9 5 4 7 5 12 2 12 -3 0 -6 -1 -7 -2z"/>
<path d="M2580 1025 c0 -2 6 -8 13 -14 10 -8 14 -7 14 2 0 8 -6 14 -14 14 -7
0 -13 -1 -13 -2z"/>
<path d="M2620 1026 c0 -2 9 -6 20 -9 11 -3 18 -1 14 4 -5 9 -34 13 -34 5z"/>
<path d="M2890 1020 c0 -5 5 -10 11 -10 5 0 7 5 4 10 -3 6 -8 10 -11 10 -2 0
-4 -4 -4 -10z"/>
<path d="M2935 1020 c-3 -5 -1 -10 4 -10 6 0 11 5 11 10 0 6 -2 10 -4 10 -3 0
-8 -4 -11 -10z"/>
<path d="M2139 1018 c-6 -22 -5 -39 3 -45 7 -4 8 -1 3 7 -6 10 -3 12 11 7 18
-7 18 -6 2 6 -10 8 -15 17 -11 20 3 4 3 7 0 7 -4 0 -7 -1 -8 -2z"/>
<path d="M2836 1007 c3 -10 9 -15 12 -12 3 3 0 11 -7 18 -10 9 -11 8 -5 -6z"/>
<path d="M2195 1000 c3 -6 1 -10 -6 -10 -7 0 -10 -3 -6 -6 3 -3 13 -2 22 4 16
8 16 9 1 15 -10 4 -15 3 -11 -3z"/>
<path d="M2264 995 c-18 -14 -18 -14 4 -8 12 3 22 9 22 14 0 12 -3 11 -26 -6z"/>
<path d="M2525 999 c-3 -4 2 -6 10 -5 21 3 28 13 10 13 -9 0 -18 -4 -20 -8z"/>
<path d="M2619 993 c-12 -16 -12 -17 2 -6 9 7 20 9 24 5 5 -4 5 -1 1 6 -9 16
-11 15 -27 -5z"/>
<path d="M2473 968 c-2 -18 0 -20 7 -8 12 18 13 30 2 30 -4 0 -9 -10 -9 -22z"/>
<path d="M2810 979 c0 -5 5 -7 10 -4 6 3 10 8 10 11 0 2 -4 4 -10 4 -5 0 -10
-5 -10 -11z"/>
<path d="M2371 973 c-1 -17 16 -25 25 -12 4 7 3 9 -4 5 -5 -3 -13 0 -15 6 -4
9 -6 10 -6 1z"/>
<path d="M2529 963 c-13 -16 -12 -17 4 -4 9 7 17 15 17 17 0 8 -8 3 -21 -13z"/>
<path d="M2000 956 c0 -8 4 -17 9 -20 5 -4 7 3 4 14 -6 23 -13 26 -13 6z"/>
<path d="M2066 960 c5 -8 9 -21 10 -28 2 -8 5 -17 8 -20 4 -3 5 4 3 16 -2 12
-9 28 -17 35 -10 10 -11 9 -4 -3z"/>
<path d="M2104 958 c-4 -7 -4 -10 1 -6 4 4 14 0 21 -10 12 -15 12 -15 7 6 -6
24 -18 29 -29 10z"/>
<path d="M2180 960 c8 -5 20 -10 25 -10 6 0 3 5 -5 10 -8 5 -19 10 -25 10 -5
0 -3 -5 5 -10z"/>
<path d="M2594 956 c1 -8 5 -18 8 -22 4 -3 5 1 4 10 -1 8 -5 18 -8 22 -4 3 -5
-1 -4 -10z"/>
<path d="M2626 958 c3 -4 9 -8 15 -8 5 0 9 4 9 8 0 5 -7 9 -15 9 -8 0 -12 -4
-9 -9z"/>
<path d="M2430 956 c0 -2 8 -10 18 -17 15 -13 16 -12 3 4 -13 16 -21 21 -21
13z"/>
<path d="M2550 942 c0 -5 7 -9 15 -9 8 0 12 4 9 9 -3 4 -9 8 -15 8 -5 0 -9 -4
-9 -8z"/>
<path d="M1955 931 c-3 -5 -2 -12 3 -15 5 -3 9 1 9 9 0 17 -3 19 -12 6z"/>
<path d="M2251 931 c-19 -12 -22 -38 -5 -38 10 0 11 4 5 10 -7 7 -5 15 7 23
19 15 14 18 -7 5z"/>
<path d="M2298 929 c17 -18 89 -20 89 -3 0 9 -4 10 -11 5 -13 -10 -55 -9 -76
3 -12 7 -13 7 -2 -5z"/>
<path d="M2413 927 c0 -8 6 -14 14 -14 9 0 10 4 2 14 -6 7 -12 13 -14 13 -1 0
-2 -6 -2 -13z"/>
<path d="M2675 931 c-3 -5 -2 -12 3 -15 5 -3 9 1 9 9 0 17 -3 19 -12 6z"/>
<path d="M2750 936 c0 -2 8 -10 18 -17 15 -13 16 -12 3 4 -13 16 -21 21 -21
13z"/>
<path d="M1984 909 c0 -13 3 -15 13 -7 7 6 13 12 13 13 0 2 -6 5 -13 8 -7 3
-13 -3 -13 -14z"/>
<path d="M2044 919 c-4 -7 -3 -9 4 -5 5 3 13 0 15 -6 4 -9 6 -10 6 -1 1 17
-16 25 -25 12z"/>
<path d="M2156 915 c-11 -8 -14 -15 -7 -15 7 0 9 -5 5 -12 -5 -7 -3 -8 5 -4 7
5 10 11 7 14 -3 3 -1 11 5 19 15 17 9 16 -15 -2z"/>
<path d="M2626 922 c-2 -4 4 -8 14 -8 10 0 16 4 14 8 -3 4 -9 8 -14 8 -5 0
-11 -4 -14 -8z"/>
<path d="M2187 907 c-3 -7 3 -13 14 -13 13 0 15 3 7 13 -6 7 -12 13 -13 13 -2
0 -5 -6 -8 -13z"/>
<path d="M2273 907 c0 -8 6 -14 14 -14 9 0 10 4 2 14 -6 7 -12 13 -14 13 -1 0
-2 -6 -2 -13z"/>
<path d="M2020 906 c0 -2 8 -10 18 -17 15 -13 16 -12 3 4 -13 16 -21 21 -21
13z"/>
<path d="M2094 880 c0 -13 4 -16 10 -10 7 7 7 13 0 20 -6 6 -10 3 -10 -10z"/>
<path d="M2330 896 c0 -2 8 -10 18 -17 15 -13 16 -12 3 4 -13 16 -21 21 -21
13z"/>
<path d="M2630 896 c0 -2 8 -10 18 -17 15 -13 16 -12 3 4 -13 16 -21 21 -21
13z"/>
<path d="M1770 881 c0 -6 4 -13 10 -16 6 -3 7 1 4 9 -7 18 -14 21 -14 7z"/>
<path d="M1916 881 c-3 -4 6 -7 19 -7 14 0 22 2 19 5 -8 8 -34 10 -38 2z"/>
<path d="M2013 875 c0 -8 4 -12 9 -9 5 3 6 10 3 15 -9 13 -12 11 -12 -6z"/>
<path d="M2039 853 c-13 -16 -12 -17 4 -4 16 13 21 21 13 21 -2 0 -10 -8 -17
-17z"/>
<path d="M2145 860 c-3 -6 1 -7 9 -4 18 7 21 14 7 14 -6 0 -13 -4 -16 -10z"/>
<path d="M2180 866 c0 -2 8 -10 18 -17 15 -13 16 -12 3 4 -13 16 -21 21 -21
13z"/>
<path d="M2616 862 c-3 -5 1 -9 9 -9 8 0 12 4 9 9 -3 4 -7 8 -9 8 -2 0 -6 -4
-9 -8z"/>
<path d="M2713 855 c0 -8 4 -12 9 -9 5 3 6 10 3 15 -9 13 -12 11 -12 -6z"/>
<path d="M1943 842 c10 -10 14 -22 10 -27 -5 -4 -2 -5 5 -1 11 6 10 12 -4 27
-9 10 -19 19 -22 19 -3 0 2 -8 11 -18z"/>
<path d="M2115 851 c-3 -5 -2 -12 3 -15 5 -3 9 1 9 9 0 17 -3 19 -12 6z"/>
<path d="M2513 835 c0 -8 4 -12 9 -9 5 3 6 10 3 15 -9 13 -12 11 -12 -6z"/>
<path d="M1839 838 c-5 -19 -8 -50 -4 -46 7 7 15 48 9 48 -2 0 -4 -1 -5 -2z"/>
<path d="M1910 836 c0 -2 8 -10 18 -17 15 -13 16 -12 3 4 -13 16 -21 21 -21
13z"/>
<path d="M1780 826 c0 -2 8 -10 18 -17 15 -13 16 -12 3 4 -13 16 -21 21 -21
13z"/>
<path d="M2033 814 c16 -20 52 -30 41 -12 -4 5 -9 7 -12 4 -3 -3 -15 2 -26 11
-21 18 -21 18 -3 -3z"/>
<path d="M2370 819 c0 -5 5 -7 10 -4 6 3 10 8 10 11 0 2 -4 4 -10 4 -5 0 -10
-5 -10 -11z"/>
<path d="M2450 820 c0 -5 5 -10 11 -10 5 0 7 5 4 10 -3 6 -8 10 -11 10 -2 0
-4 -4 -4 -10z"/>
<path d="M1759 818 c-5 -9 -5 -48 -1 -43 6 6 11 45 5 45 -2 0 -4 -1 -4 -2z"/>
<path d="M1995 810 c-4 -6 -11 -7 -17 -4 -7 4 -8 2 -4 -5 6 -9 11 -9 22 0 14
11 18 19 10 19 -3 0 -8 -5 -11 -10z"/>
<path d="M1610 801 c0 -6 4 -13 10 -16 6 -3 7 1 4 9 -7 18 -14 21 -14 7z"/>
<path d="M1899 793 c-13 -16 -12 -17 4 -4 16 13 21 21 13 21 -2 0 -10 -8 -17
-17z"/>
<path d="M2415 800 c-3 -5 -1 -10 4 -10 6 0 11 5 11 10 0 6 -2 10 -4 10 -3 0
-8 -4 -11 -10z"/>
<path d="M2074 769 c-3 -6 -2 -15 3 -20 5 -5 9 -1 9 11 0 23 -2 24 -12 9z"/>
<path d="M1906 759 c2 -4 13 -7 24 -6 23 2 17 10 -10 12 -10 1 -17 -2 -14 -6z"/>
<path d="M2030 756 c7 -7 13 -7 20 0 6 6 3 10 -10 10 -13 0 -16 -4 -10 -10z"/>
<path d="M2355 761 c-3 -5 -2 -12 3 -15 5 -3 9 1 9 9 0 17 -3 19 -12 6z"/>
<path d="M1313 745 c0 -8 4 -12 9 -9 5 3 6 10 3 15 -9 13 -12 11 -12 -6z"/>
<path d="M956 742 c-3 -5 1 -9 9 -9 8 0 12 4 9 9 -3 4 -7 8 -9 8 -2 0 -6 -4
-9 -8z"/>
<path d="M1415 740 c3 -5 8 -10 11 -10 2 0 4 5 4 10 0 6 -5 10 -11 10 -5 0 -7
-4 -4 -10z"/>
<path d="M2175 740 c3 -5 8 -10 11 -10 2 0 4 5 4 10 0 6 -5 10 -11 10 -5 0 -7
-4 -4 -10z"/>
<path d="M2275 740 c3 -5 8 -10 11 -10 2 0 4 5 4 10 0 6 -5 10 -11 10 -5 0 -7
-4 -4 -10z"/>
<path d="M2710 741 c0 -6 4 -13 10 -16 6 -3 7 1 4 9 -7 18 -14 21 -14 7z"/>
<path d="M1634 726 c1 -8 5 -18 8 -22 4 -3 5 1 4 10 -1 8 -5 18 -8 22 -4 3 -5
-1 -4 -10z"/>
<path d="M1666 722 c-3 -5 1 -9 9 -9 8 0 12 4 9 9 -3 4 -7 8 -9 8 -2 0 -6 -4
-9 -8z"/>
<path d="M1535 700 c3 -5 8 -10 11 -10 2 0 4 5 4 10 0 6 -5 10 -11 10 -5 0 -7
-4 -4 -10z"/>
<path d="M1575 700 c3 -5 8 -10 11 -10 2 0 4 5 4 10 0 6 -5 10 -11 10 -5 0 -7
-4 -4 -10z"/>
<path d="M1895 700 c-3 -5 -1 -10 4 -10 6 0 11 5 11 10 0 6 -2 10 -4 10 -3 0
-8 -4 -11 -10z"/>
<path d="M2086 698 c3 -5 10 -6 15 -3 13 9 11 12 -6 12 -8 0 -12 -4 -9 -9z"/>
<path d="M1756 687 c3 -10 9 -15 12 -12 3 3 0 11 -7 18 -10 9 -11 8 -5 -6z"/>
<path d="M1675 680 c3 -5 8 -10 11 -10 2 0 4 5 4 10 0 6 -5 10 -11 10 -5 0 -7
-4 -4 -10z"/>
<path d="M1710 679 c0 -5 5 -7 10 -4 6 3 10 8 10 11 0 2 -4 4 -10 4 -5 0 -10
-5 -10 -11z"/>
<path d="M1975 680 c-3 -5 -1 -10 4 -10 6 0 11 5 11 10 0 6 -2 10 -4 10 -3 0
-8 -4 -11 -10z"/>
<path d="M1366 662 c-3 -5 1 -9 9 -9 8 0 12 4 9 9 -3 4 -7 8 -9 8 -2 0 -6 -4
-9 -8z"/>
<path d="M1414 662 c4 -3 14 -7 22 -8 9 -1 13 0 10 4 -4 3 -14 7 -22 8 -9 1
-13 0 -10 -4z"/>
<path d="M1536 662 c-3 -4 4 -9 15 -9 23 -2 25 3 4 10 -8 4 -16 3 -19 -1z"/>
<path d="M1850 659 c0 -5 5 -7 10 -4 6 3 10 8 10 11 0 2 -4 4 -10 4 -5 0 -10
-5 -10 -11z"/>
<path d="M1894 658 c-4 -7 -4 -10 1 -6 4 4 15 2 24 -5 14 -11 14 -10 2 6 -16
20 -18 21 -27 5z"/>
<path d="M1581 636 c-9 -11 -9 -16 1 -22 7 -4 10 -4 6 1 -4 4 -3 14 3 22 6 7
9 13 6 13 -2 0 -10 -6 -16 -14z"/>
<path d="M1415 619 c-3 -4 2 -6 10 -5 21 3 28 13 10 13 -9 0 -18 -4 -20 -8z"/>
<path d="M1654 622 c4 -3 14 -7 22 -8 9 -1 13 0 10 4 -4 3 -14 7 -22 8 -9 1
-13 0 -10 -4z"/>
<path d="M1230 599 c0 -5 5 -7 10 -4 6 3 10 8 10 11 0 2 -4 4 -10 4 -5 0 -10
-5 -10 -11z"/>
<path d="M1620 600 c-9 -6 -10 -10 -3 -10 6 0 15 5 18 10 8 12 4 12 -15 0z"/>
<path d="M1466 562 c-3 -5 1 -9 9 -9 8 0 12 4 9 9 -3 4 -7 8 -9 8 -2 0 -6 -4
-9 -8z"/>
<path d="M850 486 c0 -2 7 -7 16 -10 8 -3 12 -2 9 4 -6 10 -25 14 -25 6z"/>
</g>
</svg>
